<mxfile host="app.diagrams.net" agent="Mozilla/5.0 (Windows NT 10.0; Win64; x64) AppleWebKit/537.36 (KHTML, like Gecko) Chrome/140.0.0.0 Safari/537.36" version="28.2.1">
  <diagram name="Page-1" id="3UM7lA67JvSouDeTN-OW">
    <mxGraphModel dx="872" dy="445" grid="1" gridSize="10" guides="1" tooltips="1" connect="1" arrows="1" fold="1" page="1" pageScale="1" pageWidth="850" pageHeight="1100" background="none" math="0" shadow="0" adaptiveColors="auto">
      <root>
        <mxCell id="0" />
        <mxCell id="1" parent="0" />
        <mxCell id="Cn9LnEibKLepU_TC3VL4-168" value="JVM Memory space" style="swimlane;fontStyle=0;childLayout=stackLayout;horizontal=1;startSize=30;horizontalStack=0;resizeParent=1;resizeParentMax=0;resizeLast=0;collapsible=1;marginBottom=0;whiteSpace=wrap;html=1;" vertex="1" parent="1">
          <mxGeometry x="20" y="20" width="850" height="1510" as="geometry" />
        </mxCell>
        <mxCell id="Cn9LnEibKLepU_TC3VL4-78" value="" style="swimlane;startSize=0;" vertex="1" parent="Cn9LnEibKLepU_TC3VL4-168">
          <mxGeometry y="30" width="850" height="990" as="geometry" />
        </mxCell>
        <mxCell id="Cn9LnEibKLepU_TC3VL4-138" value="load Addition class metadata" style="ellipse;whiteSpace=wrap;html=1;fillColor=#e1d5e7;strokeColor=#9673a6;" vertex="1" parent="Cn9LnEibKLepU_TC3VL4-78">
          <mxGeometry x="610" y="105" width="180" height="100" as="geometry" />
        </mxCell>
        <mxCell id="Cn9LnEibKLepU_TC3VL4-139" value="STRING CONSTANT POOL (SCP)" style="swimlane;whiteSpace=wrap;html=1;" vertex="1" parent="Cn9LnEibKLepU_TC3VL4-78">
          <mxGeometry x="270" y="75" width="300" height="230" as="geometry" />
        </mxCell>
        <mxCell id="Cn9LnEibKLepU_TC3VL4-140" value="Klass Ptr 1" style="swimlane;whiteSpace=wrap;html=1;fillColor=#f8cecc;strokeColor=#b85450;" vertex="1" parent="Cn9LnEibKLepU_TC3VL4-139">
          <mxGeometry x="40" y="40" width="100" height="50" as="geometry" />
        </mxCell>
        <mxCell id="Cn9LnEibKLepU_TC3VL4-141" value="&quot;I am in pool&quot;" style="text;html=1;align=center;verticalAlign=middle;resizable=0;points=[];autosize=1;strokeColor=none;fillColor=none;" vertex="1" parent="Cn9LnEibKLepU_TC3VL4-140">
          <mxGeometry x="5" y="20" width="90" height="30" as="geometry" />
        </mxCell>
        <mxCell id="Cn9LnEibKLepU_TC3VL4-142" style="edgeStyle=orthogonalEdgeStyle;rounded=0;orthogonalLoop=1;jettySize=auto;html=1;exitX=0.5;exitY=0;exitDx=0;exitDy=0;entryX=0.75;entryY=0;entryDx=0;entryDy=0;" edge="1" parent="Cn9LnEibKLepU_TC3VL4-139" source="Cn9LnEibKLepU_TC3VL4-140" target="Cn9LnEibKLepU_TC3VL4-140">
          <mxGeometry relative="1" as="geometry" />
        </mxCell>
        <mxCell id="Cn9LnEibKLepU_TC3VL4-143" value="Klass Ptr 1" style="swimlane;whiteSpace=wrap;html=1;fillColor=#f8cecc;strokeColor=#b85450;" vertex="1" parent="Cn9LnEibKLepU_TC3VL4-139">
          <mxGeometry x="135" y="130" width="100" height="50" as="geometry" />
        </mxCell>
        <mxCell id="Cn9LnEibKLepU_TC3VL4-144" value="&quot;Hello&quot;" style="text;html=1;align=center;verticalAlign=middle;resizable=0;points=[];autosize=1;strokeColor=none;fillColor=none;" vertex="1" parent="Cn9LnEibKLepU_TC3VL4-143">
          <mxGeometry x="20" y="20" width="60" height="30" as="geometry" />
        </mxCell>
        <mxCell id="Cn9LnEibKLepU_TC3VL4-145" value="&lt;font style=&quot;font-size: 10px;&quot;&gt;Create a literal in SCP as it does&#39;nt exist&lt;/font&gt;" style="text;html=1;align=center;verticalAlign=middle;whiteSpace=wrap;rounded=0;" vertex="1" parent="Cn9LnEibKLepU_TC3VL4-139">
          <mxGeometry x="160" y="100" width="110" height="30" as="geometry" />
        </mxCell>
        <mxCell id="Cn9LnEibKLepU_TC3VL4-146" value="Object References" style="swimlane;whiteSpace=wrap;html=1;" vertex="1" parent="Cn9LnEibKLepU_TC3VL4-78">
          <mxGeometry x="20" y="75" width="220" height="370" as="geometry" />
        </mxCell>
        <mxCell id="Cn9LnEibKLepU_TC3VL4-147" value="" style="swimlane;startSize=0;" vertex="1" parent="Cn9LnEibKLepU_TC3VL4-78">
          <mxGeometry x="20" y="10" width="810" height="50" as="geometry" />
        </mxCell>
        <mxCell id="Cn9LnEibKLepU_TC3VL4-148" value="STACK" style="text;html=1;align=center;verticalAlign=middle;whiteSpace=wrap;rounded=0;fontStyle=1" vertex="1" parent="Cn9LnEibKLepU_TC3VL4-147">
          <mxGeometry x="10" width="190" height="50" as="geometry" />
        </mxCell>
        <mxCell id="Cn9LnEibKLepU_TC3VL4-149" value="HEAP" style="text;html=1;align=center;verticalAlign=middle;whiteSpace=wrap;rounded=0;fontStyle=1" vertex="1" parent="Cn9LnEibKLepU_TC3VL4-147">
          <mxGeometry x="280" width="150" height="50" as="geometry" />
        </mxCell>
        <mxCell id="Cn9LnEibKLepU_TC3VL4-150" value="METHOD AREA" style="text;html=1;align=center;verticalAlign=middle;whiteSpace=wrap;rounded=0;fontStyle=1" vertex="1" parent="Cn9LnEibKLepU_TC3VL4-147">
          <mxGeometry x="590" width="150" height="50" as="geometry" />
        </mxCell>
        <mxCell id="Cn9LnEibKLepU_TC3VL4-173" value="&lt;span style=&quot;white-space: pre;&quot;&gt;&#x9;&lt;/span&gt;METHOD STACK FRAMES" style="swimlane;whiteSpace=wrap;html=1;" vertex="1" parent="Cn9LnEibKLepU_TC3VL4-168">
          <mxGeometry y="1020" width="850" height="490" as="geometry" />
        </mxCell>
        <mxCell id="Cn9LnEibKLepU_TC3VL4-72" value="&lt;b&gt;STACK-FRAMES&lt;/b&gt;" style="swimlane;fontStyle=0;childLayout=stackLayout;horizontal=1;startSize=30;horizontalStack=0;resizeParent=1;resizeParentMax=0;resizeLast=0;collapsible=1;marginBottom=0;whiteSpace=wrap;html=1;direction=east;fillColor=#ffe6cc;strokeColor=#d79b00;align=center;swimlaneFillColor=default;rounded=0;" vertex="1" parent="Cn9LnEibKLepU_TC3VL4-173">
          <mxGeometry x="322.5" y="50" width="205" height="360" as="geometry">
            <mxRectangle x="335" y="80" width="80" height="30" as="alternateBounds" />
          </mxGeometry>
        </mxCell>
        <mxCell id="Cn9LnEibKLepU_TC3VL4-181" value="Exit" style="swimlane;fontStyle=0;childLayout=stackLayout;horizontal=1;startSize=30;horizontalStack=0;resizeParent=1;resizeParentMax=0;resizeLast=0;collapsible=1;marginBottom=0;whiteSpace=wrap;html=1;swimlaneFillColor=#FFFDEB;fillColor=#f8cecc;strokeColor=#b85450;" vertex="1" parent="Cn9LnEibKLepU_TC3VL4-72">
          <mxGeometry y="30" width="205" height="30" as="geometry" />
        </mxCell>
        <mxCell id="Cn9LnEibKLepU_TC3VL4-177" value="&lt;div&gt;sum()&amp;nbsp;&amp;nbsp;&lt;span style=&quot;background-color: transparent; color: light-dark(rgb(0, 0, 0), rgb(255, 255, 255));&quot;&gt;SF&lt;/span&gt;&lt;/div&gt;" style="swimlane;fontStyle=0;childLayout=stackLayout;horizontal=1;startSize=30;horizontalStack=0;resizeParent=1;resizeParentMax=0;resizeLast=0;collapsible=1;marginBottom=0;whiteSpace=wrap;html=1;swimlaneFillColor=#FFFDEB;" vertex="1" parent="Cn9LnEibKLepU_TC3VL4-72">
          <mxGeometry y="60" width="205" height="120" as="geometry" />
        </mxCell>
        <mxCell id="Cn9LnEibKLepU_TC3VL4-178" value="int a" style="text;strokeColor=default;fillColor=none;align=center;verticalAlign=middle;spacingLeft=4;spacingRight=4;overflow=hidden;points=[[0,0.5],[1,0.5]];portConstraint=eastwest;rotatable=0;whiteSpace=wrap;html=1;" vertex="1" parent="Cn9LnEibKLepU_TC3VL4-177">
          <mxGeometry y="30" width="205" height="30" as="geometry" />
        </mxCell>
        <mxCell id="Cn9LnEibKLepU_TC3VL4-179" value="int b" style="text;strokeColor=default;fillColor=none;align=center;verticalAlign=middle;spacingLeft=4;spacingRight=4;overflow=hidden;points=[[0,0.5],[1,0.5]];portConstraint=eastwest;rotatable=0;whiteSpace=wrap;html=1;" vertex="1" parent="Cn9LnEibKLepU_TC3VL4-177">
          <mxGeometry y="60" width="205" height="30" as="geometry" />
        </mxCell>
        <mxCell id="Cn9LnEibKLepU_TC3VL4-180" value="Return | (int a+b)" style="text;strokeColor=default;fillColor=none;align=center;verticalAlign=middle;spacingLeft=4;spacingRight=4;overflow=hidden;points=[[0,0.5],[1,0.5]];portConstraint=eastwest;rotatable=0;whiteSpace=wrap;html=1;" vertex="1" parent="Cn9LnEibKLepU_TC3VL4-177">
          <mxGeometry y="90" width="205" height="30" as="geometry" />
        </mxCell>
        <mxCell id="Cn9LnEibKLepU_TC3VL4-75" value="&lt;div&gt;Main SF&lt;/div&gt;" style="swimlane;fontStyle=0;childLayout=stackLayout;horizontal=1;startSize=30;horizontalStack=0;resizeParent=1;resizeParentMax=0;resizeLast=0;collapsible=1;marginBottom=0;whiteSpace=wrap;html=1;swimlaneFillColor=#FFFDEB;" vertex="1" parent="Cn9LnEibKLepU_TC3VL4-72">
          <mxGeometry y="180" width="205" height="60" as="geometry" />
        </mxCell>
        <mxCell id="Cn9LnEibKLepU_TC3VL4-76" value="&lt;div&gt;String[] args&lt;/div&gt;int result" style="text;strokeColor=default;fillColor=none;align=center;verticalAlign=middle;spacingLeft=4;spacingRight=4;overflow=hidden;points=[[0,0.5],[1,0.5]];portConstraint=eastwest;rotatable=0;whiteSpace=wrap;html=1;" vertex="1" parent="Cn9LnEibKLepU_TC3VL4-75">
          <mxGeometry y="30" width="205" height="30" as="geometry" />
        </mxCell>
        <mxCell id="Cn9LnEibKLepU_TC3VL4-73" value="&lt;div&gt;Global Frames&lt;/div&gt;&lt;div&gt;&lt;br&gt;&lt;/div&gt;" style="swimlane;fontStyle=0;childLayout=stackLayout;horizontal=1;startSize=30;horizontalStack=0;resizeParent=1;resizeParentMax=0;resizeLast=0;collapsible=1;marginBottom=0;whiteSpace=wrap;html=1;swimlaneFillColor=#FFF6FD;" vertex="1" parent="Cn9LnEibKLepU_TC3VL4-72">
          <mxGeometry y="240" width="205" height="90" as="geometry" />
        </mxCell>
        <mxCell id="Cn9LnEibKLepU_TC3VL4-176" value="main() // entry point" style="text;strokeColor=default;fillColor=none;align=center;verticalAlign=middle;spacingLeft=4;spacingRight=4;overflow=hidden;points=[[0,0.5],[1,0.5]];portConstraint=eastwest;rotatable=0;whiteSpace=wrap;html=1;textDirection=ltr;" vertex="1" parent="Cn9LnEibKLepU_TC3VL4-73">
          <mxGeometry y="30" width="205" height="30" as="geometry" />
        </mxCell>
        <mxCell id="Cn9LnEibKLepU_TC3VL4-74" value="&lt;span style=&quot;color: rgb(0, 0, 0); font-family: Helvetica; font-size: 12px; font-style: normal; font-variant-ligatures: normal; font-variant-caps: normal; font-weight: 400; letter-spacing: normal; orphans: 2; text-indent: 0px; text-transform: none; widows: 2; word-spacing: 0px; -webkit-text-stroke-width: 0px; white-space: normal; background-color: rgb(236, 236, 236); text-decoration-thickness: initial; text-decoration-style: initial; text-decoration-color: initial; float: none; display: inline !important;&quot;&gt;sum(a,b) // method&lt;/span&gt;" style="text;strokeColor=default;fillColor=none;align=center;verticalAlign=middle;spacingLeft=4;spacingRight=4;overflow=hidden;points=[[0,0.5],[1,0.5]];portConstraint=eastwest;rotatable=0;whiteSpace=wrap;html=1;textDirection=ltr;" vertex="1" parent="Cn9LnEibKLepU_TC3VL4-73">
          <mxGeometry y="60" width="205" height="30" as="geometry" />
        </mxCell>
        <mxCell id="Cn9LnEibKLepU_TC3VL4-182" value="Start" style="swimlane;fontStyle=0;childLayout=stackLayout;horizontal=1;startSize=30;horizontalStack=0;resizeParent=1;resizeParentMax=0;resizeLast=0;collapsible=1;marginBottom=0;whiteSpace=wrap;html=1;swimlaneFillColor=#FFFDEB;fillColor=#d5e8d4;strokeColor=#82b366;" vertex="1" parent="Cn9LnEibKLepU_TC3VL4-72">
          <mxGeometry y="330" width="205" height="30" as="geometry" />
        </mxCell>
        <mxCell id="Cn9LnEibKLepU_TC3VL4-184" value="&lt;h1 style=&quot;margin-top: 0px;&quot;&gt;&lt;font style=&quot;font-size: 16px;&quot;&gt;STACKOVERFLOWERROR&lt;/font&gt;&lt;/h1&gt;&lt;div&gt;Occurs when program calls keep on stacking infinitly and exhaust the memory provided for the stack&lt;/div&gt;&lt;div&gt;1024 bytes(1mb).&lt;/div&gt;&lt;div&gt;&lt;br&gt;&lt;/div&gt;&lt;div&gt;eg:- recursion&amp;nbsp;&lt;/div&gt;" style="text;html=1;whiteSpace=wrap;overflow=hidden;rounded=0;" vertex="1" parent="Cn9LnEibKLepU_TC3VL4-173">
          <mxGeometry x="600" y="90" width="230" height="170" as="geometry" />
        </mxCell>
        <mxCell id="Cn9LnEibKLepU_TC3VL4-185" style="edgeStyle=orthogonalEdgeStyle;rounded=0;orthogonalLoop=1;jettySize=auto;html=1;entryX=0.998;entryY=0.031;entryDx=0;entryDy=0;entryPerimeter=0;" edge="1" parent="Cn9LnEibKLepU_TC3VL4-173" source="Cn9LnEibKLepU_TC3VL4-184" target="Cn9LnEibKLepU_TC3VL4-72">
          <mxGeometry relative="1" as="geometry" />
        </mxCell>
      </root>
    </mxGraphModel>
  </diagram>
</mxfile>
